<?xml version="1.0" encoding="utf-8"?>
<!-- Generator: Adobe Illustrator 18.0.0, SVG Export Plug-In . SVG Version: 6.00 Build 0)  -->
<!DOCTYPE svg PUBLIC "-//W3C//DTD SVG 1.1//EN" "http://www.w3.org/Graphics/SVG/1.1/DTD/svg11.dtd">
<svg version="1.1" id="Слой_1" xmlns="http://www.w3.org/2000/svg" xmlns:xlink="http://www.w3.org/1999/xlink" x="0px" y="0px"
	 width="500px" height="50px" viewBox="0 0 500 50" enable-background="new 0 0 500 50" xml:space="preserve">
<rect x="250" fill="#45688E" width="250" height="50"/>
<rect fill="#3A5795" width="250" height="50"/>
<path fill="#FFFFFF" d="M125,4c-11.6,0-21,9.4-21,21s9.4,21,21,21s21-9.4,21-21S136.6,4,125,4z M130.8,16.9h-3.1
	c-0.5,0-1.2,0.3-1.2,1.3V21h4.2l-0.4,4.8h-3.8v13.7h-5.7V25.8h-2.7V21h2.7v-3.2c0-2.3,1-5.7,5.7-5.7h4.2L130.8,16.9L130.8,16.9z"/>
<path fill="#FFFFFF" d="M375,4c-11.6,0-21,9.4-21,21s9.4,21,21,21s21-9.4,21-21S386.6,4,375,4z M387.1,34.2l-3.7,0.1
	c0,0-0.8,0.2-1.8-0.5c-1.4-1-2.7-3.4-3.7-3.1c-1.1,0.4-1,2.5-1,2.5s0,0.4-0.3,0.7c-0.3,0.3-0.8,0.4-0.8,0.4h-1.7
	c0,0-3.7,0.3-6.8-3.1c-3.5-3.7-6.6-10.9-6.6-10.9s-0.2-0.4,0-0.7c0.2-0.3,0.8-0.3,0.8-0.3h3.9c0,0,0.4,0.1,0.6,0.3
	c0.3,0.2,0.4,0.4,0.4,0.4s0.6,1.6,1.5,3.1c1.7,2.9,2.5,3.5,3,3.1c0.8-0.4,0.6-4,0.6-4s0-1.3-0.4-1.8c-0.4-0.4-1-0.6-1.2-0.6
	c-0.3,0,0.2-0.5,0.6-0.8c0.7-0.3,1.9-0.3,3.4-0.3c1.1,0,1.5,0.1,1.9,0.2c1.4,0.4,0.9,1.6,0.9,4.6c0,1-0.2,2.4,0.5,2.8
	c0.3,0.2,1.1,0,2.9-3.1c0.9-1.5,1.6-3.2,1.6-3.2s0.2-0.3,0.4-0.4c0.3-0.2,0.5-0.1,0.5-0.1h4.1c0,0,1.2-0.2,1.5,0.4
	c0.2,0.6-0.4,1.9-2.2,4.2c-2.8,3.7-3.1,3.3-0.8,5.5c2.2,2,2.6,3.1,2.7,3.2C389,34.1,387.1,34.2,387.1,34.2z"/>
</svg>
